<?xml version="1.0" encoding="utf-8"?>
<!-- Generator: Adobe Illustrator 19.1.0, SVG Export Plug-In . SVG Version: 6.00 Build 0)  -->
<svg version="1.1" id="Layer_1" xmlns="http://www.w3.org/2000/svg" xmlns:xlink="http://www.w3.org/1999/xlink" x="0px" y="0px"
	 viewBox="-71 277 374.5 197.4" style="enable-background:new -71 277 374.5 197.4;" xml:space="preserve">
<g>
	<path d="M45.4,466.9c-1-0.6-2.3-0.5-3.4-0.4c-0.6,0.1-0.9,0.1-1.2,0.7c-0.1,0.2-0.3,0.7-0.4,0.9c-0.1,0.3,0,0.7,0.3,0.9l0,0
		c0.4,0.4,0.8,0.7,1.4,0.7c0.4,0,0.5,0,0.9,0.1s0.7,0.1,1.1-0.1C45,469.5,47,467.8,45.4,466.9z"/>
	<path d="M3.1,357.6l-0.2,0.1l0,0c-1.1,0.4-4.4,1.5-3.8,3.2c0.6,1.8,3.2,0.1,4.3-0.1c0.7-0.1,1.8,0.5,2.4,0.8
		c0.9,0.3,1.6,0.8,1.9,1.7c0.4,1,0.9,1,1.9,1c1.1,0,2.3-0.1,3.4-0.3v0.1c-0.6,0-1.2,0.2-1.4,0.8c-0.7,1.3,0.7,2.1,1.8,2.2
		c0.7,0.1,1.4-0.3,1.9,0.2c0.5,0.4,0.8,0.9,1.5,0.5c0.4-0.3,0.4-0.8,0.9-0.9c1.1-0.3,2.1,0.3,3.2-0.4c2.6-1.9-5.1-4.5-6.7-4
		c-0.5-0.7-1.5-1.2-2.2-1.7c-0.9-0.6-1.7-1.2-2.7-1.7C7.6,358,5.1,356.9,3.1,357.6z"/>
	<path d="M172.2,409.8c-0.9-1.1-2.2-0.6-2.6,0.6c-0.1,0.2-0.1,0.4-0.3,0.5c-0.2,0.2-0.4,0.2-0.6,0.4c-0.3,0.3-0.2,0.8-0.4,1.1
		c-0.4,0.7-1.2,1.6-1.9,2.1c-0.6,0.4-1.4,0.5-2,0.9c-0.8,0.5-1.3,1.5-1.5,2.5c-0.2,1,0,1.9,0,2.9c0.1,1.2-0.4,2.1-0.8,3.1
		c-0.8,1.9-0.9,3.6,0.2,5.4c0.9,1.5,2.5,2.4,4.2,1.2c1.5-1.1,2.4-3,3-4.7c0.7-2,1.6-3.9,2.2-5.9c0.2-0.6,0.4-1.2,0.5-1.9
		c0-0.2,0.1-0.5,0.1-0.7c0.1-0.6,0.1-0.2,0.4-0.6c0.3-0.5,0.4-1.2,0.5-1.8C173.3,413.4,173.3,411.1,172.2,409.8
		C171.8,409.4,172.3,410,172.2,409.8z"/>
	<path d="M90.9,293.6c0.5-0.2,0.9-1.1,1.1-1.6c0.3-0.7,0.2-1.4,0.3-2.1c0.5-0.3,1.1-0.6,1.7-0.8l0,0l0,0l0,0
		c0.9-0.5,2.8-0.8,3.4-1.7c0.4-0.6,0.1-1.3-0.4-1.6c0.3-0.4,0.7-0.9,0.6-1.5c-0.1-0.6-0.5-0.7-0.9-1.1c1.5-0.6,3.1-1.2,4.6-1.8
		c0.8-0.3,1.8-0.3,2.4-0.8c0.7-0.6,0.3-1.6-0.5-1.8c-1.2-0.3-2.6-0.3-3.8-0.4c-0.8-0.1-1.5-0.2-2.2,0c-0.6-1.4-3.4-1.4-4.7-1.4
		c-2.5-0.1-4.9,0.1-7.4,0.1l0,0c-0.4,0-0.9,0.1-1.3,0.1l0,0c-2.4,0.1-4.8,0.4-7.2,0.5c-0.5,0-1,0-1.5,0c-0.2,0-0.4,0.1-0.6,0.1
		s-0.3-0.1-0.5-0.1c-0.8,0-1.6,0.5-2.4,0.8c-0.9,0.3-1.7,0.1-2.6,0c-1.3-0.1-2.6-0.3-3.9-0.4c-2.2-0.3-4.5-0.5-6.7-0.5
		c-4.3,0-8.7,0.1-13,0.5c-1.3,0.1-2.6,0.2-3.9,0.4c-0.7,0.1-1.9,0.2-2.2,1c-1.6-0.2-3.8-0.5-5.2,0.5c-0.6,0.5-1.1,1.3-0.9,2.1
		c0.1,0.4,0.4,0.7,0.6,1s0.4,0.7,0.8,0.9c-0.6,0.3-1.7,0-2.5-0.1c-0.6,0-1.2-0.1-1.8-0.1c1.1-2-1.6-2.7-3.1-2.8
		c-1,0-1.8,0.2-2.5,0.8c-0.8,0.7-1,1.8,0.1,2.3c-0.2,0.1-0.4,0.4-0.5,0.4c-0.8-1.1-2.5-0.9-3.1,0.3c-0.3-0.2-0.6-0.3-0.8-0.3v-0.1
		c0.9-0.2,3-0.7,2.2-2.1c-0.5-1-1.9-0.8-2.9-0.7l0,0c-0.3,0.1-0.7,0.1-1,0.1c-0.6,0.1-1,0.4-1.4,0.7c-0.5,0.3-1.1,0.3-1.2,0.9
		c-0.2,0.5,0.1,1.1,0.6,1.3c0,0,0,0-0.1,0.1c-0.4-0.1-0.7-0.2-1.1-0.2c0.1-0.1,0.1-0.3,0.1-0.4l0,0c0-1.4-1.9-1.2-2.9-1.1l0,0
		c-0.2,0-0.5,0.1-0.8,0.1l0,0c-1.2,0.1-8.2,0.8-6.8,3.2c-1.3-0.1-2.9-0.1-4.1,0.5c-1.4,0.8-2.7,1.8-4.2,2.5
		c-0.6,0.3-1.3,0.5-1.1,1.4c0.2,0.6,0.7,1.1,1.2,1.3c1.2,0.6,2.7,0.1,3.9-0.3c0,0.4-0.3,0.6-0.3,1c-1.5-0.2-2.9-0.3-4.3-0.3
		c-0.2-1.3-1.7-0.9-2.5-0.5c-0.4-1.5-2.7-0.8-3.8-0.5c-0.9,0.2-1.8,0.3-2.7,0.5c-0.5,0.1-1,0.3-1.5,0.5c-0.4,0.1-0.7,0.1-1.1,0.1
		c-1.2,0.1-2.3,0.4-3.5,0c-2-0.7-4-1-6-1.2c-1-0.1-2.1-0.2-3.1-0.3c-1-0.1-1.9-0.5-2.9-0.7c-1.7-0.3-3.6,0.1-5.3,0.3
		c-3.2,0.5-6.4,1.3-9.6,2.2c-1.8,0.5-3.9,1-2.3,3.1c-0.8,0-1.8,0.3-2.6,0.4c-1.1,0.1-2.2,0.2-3.2,0.6c-0.2,0.1-0.5,0.2-0.6,0.3
		c-0.5,0.4-0.3,0.7-0.3,1.2c-0.1,0.7-0.6,1.3,0.2,1.9c-1.5,0.3-3.1,0.9-4.4,1.7c-1.2,0.8-3.6,3.2-1.6,4.5c-0.8,0.7-0.4,1.7,0.6,2
		l0,0l0,0c-1.1,0.5-2.1,1.1-3.3,1.5c-1.2,0.4-2.5,0.7-3.8,1.1c-0.9,0.3-1.9,0.5-2.8,0.9c-0.8,0.3-1.7,1.4-0.5,2
		c0.5,0.3,1.2,0,1.8-0.1c0.9-0.1,1.9-0.3,2.8-0.4c0.8-0.1,1.6-0.3,2.4-0.3c0.8,0,1.4-0.1,1.6-1.1c2.1-0.7,4.2-1.2,6.2-2
		c0.7,1.2,2.7,0.4,3.8,0c1-0.4,2.6-1.6,2.8-2.7c0.4,0.2,1,0,1.4-0.1c0.8-0.1,1.5-0.3,2.3-0.4c0.8-0.2,1.6-0.3,2.4-0.6
		c0.8-0.2,1.4-0.2,2.2-0.3c0.4,0.5,1.2,0.5,1.8,0.6c1,0.1,1.9,0.3,2.9,0.3c0.6,1.1,0.7,1.6,0.8,1.8c-0.6,0.2-0.6,0.7-0.6,1.3
		c0,0.5,0,1.1,0.1,1.6c0.1,1,0,2,1.4,2.1c-0.2,0.5,0.1,1.2,0.1,1.7c0.1,0.6-0.1,1.1-0.1,1.7c-2.8,0.3-0.4,3.5,0.5,4.5
		c-1.1,1.7-1.8,3.5-3,5.1c-1.4,1.8-2.9,3.6-3.8,5.7c-0.8,1.8-0.7,3.9-0.5,5.8c0.2,1.8,0.7,4.7,2.9,5.3c0.6,2.4,1.4,4.7,2,7.1
		c-0.5,0.2-1,0.2-1.1,0.9c-0.1,0.6,0.3,1.1,0.6,1.5c0.6,0.6,1.7,1,2.2,1.7l0,0c-0.5,0.7-0.7,1.8,0,2.5c0.3,0.3,0.7,0.3,0.9,0.6
		c0.3,0.2,0.5,0.6,0.7,0.8c0.3,0.4,0.5,1,0.9,1.2c0.4,0.2,1,0,1.4-0.2c1.4-0.8,0.7-2.6-0.1-3.5c-0.4-0.5-0.5-0.9-0.6-1.5
		c-0.2-0.9-0.5-1.9-0.8-2.8c0.9,1.4,1.3,3,2.1,4.4c0.8,1.3,2.1,2.4,2.5,3.9c0.3,1.2-0.3,2.4,0,3.5c0.3,1.2,1.4,2,2.3,2.7
		c2.1,1.6,4.5,3,7,3.8c1.4,0.4,2.4,0.4,3.8-0.1c1.3-0.5,1.7,0.9,2.5,1.8c0.7,0.7,1.5,1.1,2.4,1.4c1.2,0.5,2.5,1.1,3.9,1.1
		c0.6,1.2,1,2.6,1.6,3.9c0.4,0.7,1.1,1.4,2,1.1c0.4,1,1.1,2.7,2.4,2.5c0.1,0.6,0.7,0.8,1.2,0.9s1.2,0.4,1.8,0.2
		c1-0.2,1.2-1.5,1.5-2.3c0.5,0.5,0.5,0.9,0.6,1.6c0.1,0.8,0.2,1.5,0.3,2.3c0.2,1.2,0.2,2.4-0.5,3.4c-1,1.4-2.3,2.4-3.2,3.9
		s-1.5,3.9,0,5.4c-0.8,1.3-1.3,1.8-1.1,3.3c0.2,1,0.3,1.6,1,2.5c0.8,1,1.8,1.7,2.4,2.8c1.3,2.3,2.4,4.7,3.6,7.1
		c1.2,2.2,2.8,3.6,4.9,4.7c1,0.6,2.2,1.1,3,2s1.1,2,1.2,3.2c0.2,2.6,0.1,5.2,0.1,7.8c0.1,1.4,0,2.9,0.2,4.3c0.2,2.5,1.4,5,1,7.5
		c-0.2,1.4-0.7,2.7-0.7,4.1c-0.1,1.2,0.5,2.3,1,3.4c0.5,1.2,0.7,2.4,0.9,3.7c0.1,1.1,0.1,2.7,1.1,3.4c-0.5,0.6-1.1,2,0,2.4
		c0,0.6-0.4,1.5-0.2,2c0.2,0.6,0.9,0.7,1.4,0.8c-1,0.6-0.1,1.6,0.2,2.3c0.4,0.9,0.6,1.9,1.2,2.6c0.3,0.3,0.6,0.5,0.9,0.8
		c0.3,0.4,0.6,0.8,1,1.1c0.7,0.7,1.1,1.3,2.1,1.8c0.3,1.1,1.6,1.1,2.5,1.5c0.6,0.3,1.1,0.8,1.8,1.1c0.5,0.2,1,0.3,1.5,0.4
		c0.9,0.2,2.2,0.7,3.1,0.5c0.8-0.2,1.6-0.4,2.4-0.7c0.4-0.2,0.8-0.3,0.9-0.8c0.3-1.1-0.7-1.5-1.5-1.8c-1.1-0.3-2.2-1-3-1.7
		c-0.7-0.7-1.8-1.7-2.1-2.7c0.1-0.8,0.6-1.7,0.9-2.4c0.1-0.3,0.2-0.6,0.3-0.8c0.2-0.3,0.5-0.4,0.5-0.9s-0.5-1.1-0.8-1.5
		c-0.3-0.3-0.6-0.6-0.9-0.8c-0.3-0.2-1-0.2-1.3-0.5c0.4-0.3,0.8-0.5,1.2-0.8c0.5-0.5,0.4-1.2,0.4-1.9c0-0.5-0.1-0.4,0.3-0.8
		c0.2-0.2,0.5-0.5,0.6-0.8c0.3-0.6,0.3-1.4-0.2-1.9c1.2-0.4,1.2-1.7,0.9-2.7c1.5-0.2,3.4-0.9,4.4-2.1c1.3-1.4,0.8-3-0.2-4.4
		c0.8,0.1,2,0.3,2.8-0.2c1-0.7,1.8-2,2.3-3c0.3-0.5,0.6-1.1,0.9-1.7c0.1-0.2,0.1-0.4,0.2-0.6s0.2-0.3,0.4-0.5c0.4-0.5,0.7-1.2,1-1.8
		c0.7-1.7,1.2-3.5,1.4-5.3c0-0.4,0-0.7,0-1.1c0.1-0.5,0.4-0.8,0.8-1.2c0.7-0.7,1.6-0.8,2.2-1.5c0.3,0,0.5-0.1,0.8-0.2
		c0.4-0.2,0.7-0.3,1.1-0.3c1.1-0.2,2.1-0.5,2.9-1.3c1.3-1.5,1.5-3.8,2-5.6c0.5-2.2,0.3-4.5,0.6-6.7c0.2-1.7,1.3-3.3,2.3-4.7
		c1.1-1.4,2.4-2.7,2.5-4.5c0.1-1.3,0-2.9-0.6-4.1c-0.3-0.7-0.9-1.1-1.7-1.2c-0.7-0.1-0.8,0-1.4-0.4c-1.7-1.1-3.3-2.5-5.4-2.9
		c-1.1-0.2-2.3,0-3.3-0.4c-0.7-0.3-1.1-1.1-1.7-1.5c-0.7-0.6-1.7-0.8-2.5-1.1c-0.4-0.1-0.8-0.1-1.2-0.2c-0.5-0.1-1.1-0.4-1.6-0.7
		c-0.9-1.8-1.2-3.8-2.2-5.5c-1-1.6-2.6-3-4.6-3.3c-0.8-0.1-1.5,0-2.3-0.1c-1.2-0.1-1.5-0.8-2.1-1.7c-0.3-0.5-0.7-0.9-1.2-1.2
		c-0.4-0.2-1.3-0.4-1.5-0.8c-0.3-0.4-0.1-0.8-0.5-1.2c-0.3-0.3-0.8-0.6-1.1-0.8c0.8-2.3-4.1-0.9-5-0.6c-0.5-0.3-0.8-0.7-1.5-0.7
		c-0.6-0.1-1.2,0-1.8,0.1c-0.6-0.9-2.6-3-3.7-2.2c-1.5-1.6-3.6,0.9-5.1,1.3c-1,0.3-1.6,0.5-2.1,1.4c-0.5,0.7-0.9,1.5-1.4,2.2
		c-0.9-0.7-2.1-1.5-3.3-1.3c-0.6,0.1-2.2,1.4-2.7,1c-2.5-1.9,0-5.1-0.4-7.7c-0.5-2.8-3.5-2.8-5.7-2.8c0.5-1.3,0.6-2.7,1.1-3.9
		c1.3,0,1.5-1.9,1.4-2.8c-0.1-1.7-2.2-1.5-3.4-1.3c-1.3,0.3-2.7,0.7-3.5,1.8c-0.4,0.6-0.6,1.3-1.1,1.8c-0.5,0.6-1.5,0.9-2.3,1
		c-3.6,0.2-3.2-5.2-2.7-7.5c0.6-2.7,2-6,5.1-6.7c1.3-0.3,2.6,0.3,3.9,0.4c0.2,0,0.5,0,0.7,0s0.4,0,0.5,0c0.2,0.1,0.4,0.3,0.7,0.3
		c0.7,0.1,1.5-0.6,1.4-1.4l0,0c0-0.2,0.1-0.4,0.1-0.6c0.8-0.1,1.8-0.2,2.6,0c1,0.2,1.6,1.3,2.7,0.7c0.5,1.3,0.1,2.8,0.5,4.1
		c0.3,0.9,0.9,2.1,1.7,2.7c2.1,1.7,3-2.6,3.1-3.9c0.1-2.4-0.8-5,1.2-6.9c1-1,2.4-1.6,3.6-2.3c1.1-0.6,2.2-1.3,3.3-1.9
		c0.8-0.4,0.9-1.5,1-2.3c0-0.2-0.1-0.6,0-0.8c0.1-0.2,0.4-0.4,0.5-0.6c0.3-0.5,0.5-1,0.7-1.6c0.3-0.6,0.5-0.7,1.1-1
		c0.4-0.2,0.8-0.5,1.2-0.8c0.8-0.6,1.6-1,2.5-1.3l0,0c1-0.2,5-1.7,3-3.3l0,0l0,0c1.1-0.9,2.6-1.4,3.9-1.9c0,1.5,1.1,1.6,2.3,1.4
		c1.7-0.4,3.3-1.1,4.8-1.8c1-0.4,2.4-0.9,3.1-1.8c0.6-0.7,0.2-1.5,0-2.3c1.2,0.8,3.6,0.5,5,0.6c0.2,0.6,0.7,0.7,1.2,0.9
		c0.4,0.2,0.6,0.3,1.1,0.2c0.9-0.2,1.7-1.3,2-2.1c0.3-0.9,0-1.9-0.1-2.7c-0.2-1-0.7-1.7-1.8-1.5c0.3-0.3,0.6-0.8,0.7-1.2
		c0.1-0.2,0-0.4,0-0.7c0-0.4-0.1-0.1,0-0.6c0.3-0.7,0.4-1.1,0.2-1.9c-0.4-1.5-1.7-3.5-3.3-3.8c0-0.8,0.1-1.6,0-2.4
		c-0.1-0.6-0.3-1.3-0.5-1.9c-0.1-0.4-0.5-1.3-0.3-1.7c0.1-0.2,0.4-0.4,0.5-0.7c0.1-0.1,0-0.3,0.1-0.4c0.2-0.3,0.6-0.4,0.8-0.8
		c0.3-0.4,0.4-0.8,0.7-1.2c0.4-0.5,0.6-1.1,0.4-1.7c0.7,0.1,1.1-0.3,1.7-0.6c0.9-0.5,1.9-1,2.8-1.5s1.2-1.4,0.2-2
		c-0.9-0.5-1.9-0.9-2.8-1.4c1-1.2,0.1-2.9-1.1-3.5c-0.4-0.2-0.8-0.2-1.1-0.3c-0.2-0.1-0.4-0.3-0.7-0.5c-0.4-0.2-0.8-0.3-1.2-0.4
		c-0.4-0.2-0.6-0.3-1-0.6c0-0.7-0.4-1.4-1.1-1.7c0.2-0.2,0.4-0.4,0.5-0.7c0.9-0.1,1.9-0.4,2.7-0.9c0.2-0.2,0.5-0.3,0.6-0.6
		c0.3-0.4,0.1-0.5,0.7-0.6c0.8-0.2,1.7-0.3,2.5-0.5c-0.2,1.8,3.2,2.3,4.4,2.5c1.8,0.3,3.7-0.4,5.5,0.1c0,0.3,0.2,0.5,0.2,0.8
		s-0.2,0.6-0.2,0.9c-0.1,0.5,0.1,0.7,0,1.1c-0.1,0.5-0.4,0.8-0.4,1.3c0,0.2,0.1,0.4,0.1,0.5c0,0.2-0.1,0.2-0.3,0.4
		c-0.2,0.3-0.5,0.6-0.6,0.9c-0.3,0.8,0.2,1.3,0.9,1.7c-0.6,0.4-1.5,1-1.7,1.8c-0.1,0.4-0.1,1-0.2,1.5c-0.1,1.4,0.2,2.9,0.6,4.3
		c0.5,1.7,1,3,2.7,3.8c1.4,0.7,3.2,1,4.7,0.4c1-0.4,1.6-1.2,2.2-2c1-1.2,2-2.5,3-3.7c0.7-0.9,2.4-0.9,3.5-1.1
		c1.7-0.4,3.1-1.3,4.6-2.1C82.6,295.1,87.1,295.2,90.9,293.6C91.3,293.5,89.1,294.3,90.9,293.6z"/>
	<path d="M285.4,453.6c0.3-0.8,0.6-1.7-0.5-2c-0.9-0.2-1.9,0.2-2.8,0.1l0,0c0-0.7-0.6-1.1-1.2-1c-0.5,0.1-0.9,0.6-1.1,1
		c-0.6,1-1,2.2-1.1,3.4c-0.2,1.9,1.2,2.9,3.1,2.2C283.3,456.8,284.8,455.1,285.4,453.6z"/>
	<path d="M203.3,388.6c-0.3-0.9-0.4-2.9-1.4-3.2c-1.2-0.3-1.5,1.2-1.3,2c0.2,1,0,2.7,1.2,3C202.7,390.7,203.9,389.5,203.3,388.6
		C203.3,388.5,203.6,389,203.3,388.6z"/>
	<path d="M301.8,428.3c-0.4-0.3-0.9-0.4-1.3-0.2c-0.4-0.7-0.8-1.6-1-2.4c-0.2-0.9-0.3-1.3-1.3-1.5c0-0.7,0.3-1.5,0-2.2
		c-0.2-0.5-0.7-0.8-1.2-1.1c-0.4-0.2-1-0.4-1.3-0.9c-0.2-0.4-0.3-1-0.3-1.4c-0.2-1.2-0.2-2.5-0.4-3.8c-0.1-0.9-0.3-2.5-1.4-2.7
		c0.2-0.9,0.8-3-0.9-2.9c-0.1-0.4-0.1-0.8-0.3-1.1c1-0.4,1.3-2.2,1.8-3c0.4,0.4,0.9,0.6,1.3,1c0.4,0.3,0.5,0.7,0.8,1.1
		c0.4,0.7,1.1,1,1.9,1.4c1.2,0.5,4.2,1.8,5.1,0.2c0.6-0.9-0.1-1.8-1-1.7c-0.9-0.6-1.6-1.7-2.3-2.5c-0.4-0.5-1.4-1.3-1.2-2l0.9-0.3
		c-0.3-0.9-1.4-1.6-2.2-2.2c0.2-0.6,0.2-1.2-0.4-1.6c-0.3-0.2-0.7-0.1-1-0.2s-0.5-0.4-0.8-0.5c-1.3-0.8-2.7-1.6-4.1-2.2
		c-1.3-0.6-2.7-1.2-4.1-1.4c-0.7-0.1-1.5-0.2-2.1,0.2c-0.8,0.5-1.4,1.3-2.2,2l0,0l0,0c-0.5-1-0.5-2.2-1.3-3.1
		c-0.9-1-2.2-1.1-3.4-0.6l0,0c-0.3,0.2-0.6,0.3-0.9,0.4c-0.5,0.1-1.1,0-1.5,0.4c-1.1,1.1,1,2.6,1.8,3c-0.1,0.1-0.2,0.3-0.2,0.5
		c-0.7-0.8-1.8-1-2.8-1l0,0c-0.8,0.1-2,0.2-2.6,0.9c-0.4,0.5-0.6,1.1-0.2,1.6c0.3,0.3,0.8,0.8,1.3,0.9c0.7,0.2,1.4-0.2,2.1,0
		c1,0.2,3.2,0.5,2.8-1.2c0.2,0.2,0.6,0.5,0.7,0.8c0.2,0.4,0.1,0.7,0.6,1s1.5,0.5,2-0.1c1.3,0.5,2.8,1,3.9,1.8c0.8,0.9,0.1,1.1-0.4,2
		c-0.6,0.9-0.8,2.3,0.4,2.7c0.9,0.3,1.8-0.4,2.5-0.2c1.1,0.3,2.1,1.2,3.2,1.6c-0.3,0.1-0.6,0.3-0.8,0.5l0,0c0,0.3-0.5,0.8-0.6,1
		c-0.2,0.4-0.4,0.9-0.5,1.4c-0.3,0.9-0.4,1.9-0.5,2.8s-0.3,1.8-0.6,2.6c-0.1,0.1-1,1.5-1,1.5c-0.5-0.1-0.9-0.9-1.3-1.3
		c-0.5-0.6-1.1-1.1-1.7-1.4c0.8-0.3,0.9-1.3,0.7-2c-0.1-0.4-0.2-0.5-0.1-0.9c0.1-0.5,0.3-0.9,0.3-1.4c0-1.7-1.8-1.5-2.9-1.3
		c-1.2,0.2-2-0.5-3-1c-1.1-0.5-3.3,0.3-2.3,1.8c-0.8,0.2-1.8,0.5-2.3,1.2c-0.5,0.6-0.8,1.5-1,2.3c-0.2,0-0.5,0.1-0.7,0.1
		c-0.8-0.7-2.2-2-3.4-1.7c-0.7,0.2-0.9,0.9-1.4,1.4c-0.6,0.6-1.1,1.5-1.4,2.3c-1.4,0.1-2.4,0.6-3.1,1.9s-0.9,2.6-2.4,3.3
		c-2.6,1.1-5.8,1-8,3.2c-1.5-0.6-2,2.4-2.3,3.3c-0.2,0.8-0.2,1.8-0.7,2.5c-0.2,0.3-0.5,0.3-0.6,0.7c-0.1,0.3,0.1,0.6,0.1,0.8
		c0.4,1.7,0.6,3.5,0.7,5.2c0,0.7,0.1,1.5,0.1,2.2c-0.1,1.3-0.5,1.7-1.3,2.6c-1.2,1.3-1,3.1,0.9,3.7c1.3,0.4,2.8,0.1,4.1-0.2
		c1.6-0.4,3-0.9,4.7-0.9c0.6,0,1.3,0.2,1.8-0.1c0.3-0.1,0.5-0.4,0.7-0.7c0.4-0.3,0.8-0.6,1.3-0.9c1.8-1,3.8-1.6,5.8-1.8
		c0.8-0.1,1.5-0.1,2.3,0.1c0.6,0.1,1.8,0.3,2.3,0.8c0.4,1.1-0.3,2.2,0.4,3.3c0.5,0.8,1.7,1.3,2.6,1.1c0.2,0.5,0.7,0.6,1.2,0.7
		c-0.3,0.8-0.5,1.5-0.2,2.4c0.4,0.9,1.3,1.3,2.3,1.6c0.7,0.2,1.3,0.6,2,0.6c0.5,0,1-0.3,1.5-0.5c0.5,0.4,0.9,1,1.5,1
		s1.2-0.4,1.7-0.7c0.6-0.4,1.2-0.9,1.8-1.2c0.5-0.2,1-0.3,1.5-0.5c1.2-0.5,2.1-1.4,2.9-2.4c1.1-1.2,2.1-2.4,3.2-3.6
		c1-1.1,2.1-2.1,3-3.4c0.8-1.1,1.6-2.3,2.2-3.6c0.3-0.6,0.6-1.3,0.8-1.9c0.2-0.7,0.1-1.2,0.1-1.8C301.3,431,303,429.3,301.8,428.3
		C301.7,428.2,302,428.5,301.8,428.3z"/>
	<path d="M242.5,402.1c-0.4,1.8,3,2.4,4.3,2.8c2,0.5,4,1,6,1.4c2.1,0.4,4.1,0.5,6.2,0.4c2.2-0.1,4.5,0.3,6.7,0.1
		c-0.8,1.2,0.4,2.4,1.6,2.1c0.9-0.2,1.7-0.8,2.5-1.2c0.7-0.4,1.3-0.9,2-1.3c0.6-0.4,1.4-0.8,1.2-1.6c-0.4-1.5-2.1-0.8-3-0.4
		c-0.6-0.8-2.6-0.3-3.4-0.3c-1.4,0.1-2.8,0.1-4.2,0.1c-1-1.5-3.5-0.4-4.8,0.1c-0.4-0.3-0.9-0.6-1.6-0.8c0.6-1.4-1.2-1.8-2.2-1.8
		c-0.6,0-1.3,0.1-2-0.1c-0.4-0.1-0.6-0.3-1.2-0.2c-0.7,0.1-1.5,0.2-2.2,0.2c-1-0.1-1.8-1-2.9-1.2c0-0.6,0-1.2,0.1-1.8
		c0.6,0.1,1.1-0.3,1.3-0.9c0.2-0.7-0.4-1.2-0.7-1.8c-0.3-0.6-0.4-1.4-1.1-1.7c-0.5-0.2-1.1-0.1-1.5,0.3c-0.3-0.3-0.6-0.6-1-0.9
		c0-0.1,0.1-0.3,0.1-0.5c0.5-0.1,1.2-0.7,1.3-1.2c0.3-0.9-0.5-1.3-0.8-1.9c-0.3-0.7-0.4-1.6-0.7-2.4c-0.3-0.9-0.6-1.7-1-2.5
		c-0.3-0.6-0.5-1.3-1-1.8c-0.6-0.6-1.3-1.1-1.9-1.7c-0.7-0.7-0.8-1.4-1-2.3c-0.1-0.7-0.2-1.7-1.1-1.8c0.1-0.9,0.3-1.8,0.5-2.6l0,0
		l0,0c0.9,0.7,2.1,1.4,2.7,2.4c0.1,0.2,0.2,0.4,0.4,0.6c0.2,0,0.2,0.1,0.2,0.2c0,0.2,0.1,0.4,0.1,0.5c0.2,0.4,0.6,0.6,1.1,0.6l0,0
		c0.3,0.9,0.2,2.4,1.6,2.3c1.2-0.2,2.1-1.5,2.8-2.4c0.7-0.8,1.5-1.2,2.3-1.9c0.9-0.8,1.1-2.1,1-3.3c-0.2-3-2.3-5-4.2-7
		c-0.7-0.7-1.7-1.7-1.3-2.8c0.3-0.7,1.3-1.7,2.2-1.6c0.1,1.1,0.6,2,1.8,2c1,0,1.4-0.9,1.3-1.8c0.6-0.1,1.2-0.4,1.8-0.5
		c0.6-0.1,1-0.5,1.5-0.9c1.1,0.4,1.7-0.3,2.5-0.9c0.9-0.7,2-1.2,2.8-2c0.7-0.8,2.2-1.8,2.1-3c-0.1-0.5-0.2-0.7,0-1.2
		s0.6-0.9,0.8-1.4c0.3-0.6,0.3-1.2,0.4-1.8c0.1-0.8,0.1-1.7,0-2.5c-0.1-0.3-0.1-0.6-0.4-0.8c-0.1-0.1-0.3-0.2-0.4-0.2
		c0-0.1-0.1-0.3-0.2-0.4c-0.3-0.2-0.3-0.3-0.5-0.6l0,0c-0.4-0.9-1.6-1.8-2.3-2.5c-0.7-0.8-1.4-1.6-2.1-2.4l0,0
		c0.4-0.5,1.1-0.5,1.6-0.8c0.7-0.5,1.2-1.3,1-2.2c-0.3-1.5-2.1-1.4-3.2-1.3c0.7-0.7,2.1-1.1,3.1-0.9c0.2,0.8,0,1.9,0.9,2.3
		c0.6,0.3,1.4,0.3,2,0.5c0.7,1.4,0.6,2.9,1.6,4.2c0.9,1.1,2.6,0.5,3.6-0.2c3.8-2.4-1.7-6-3.4-7.8c0.9-0.6,1.1-1.4,1-2.4
		c-0.1-0.7,0.2-1.5,0.8-1.9c0.8,0.1,1.2,0.6,2.1,0.3c0.9-0.3,1.6-1.1,1.9-1.9c0.5-1.2,0.6-2.5,0.8-3.8c0.2-1.4,0.3-2.7,0-4
		c0.8,1.3,1.4,2.7,2.3,4c0.1,0.2,0.4,0.5,0.5,0.7c0.2,0.3,0.1,0.7,0.3,1c0.2,0.5,0.5,1.1,0.7,1.6c-1.2,0.9,0.5,4.4,1.7,4.7
		c0,1.4,1.4,2.4,0.5,3.7c-0.6-0.4-1.5-0.3-1.9,0.4c-0.2,0.3-0.3,0.8-0.2,1.1c0.1,0.5,0.1,0.7,0,1.3c-1.3,0.2-2.9,0.1-3.9,1
		c-0.6,0.6-1,1.3-1.5,1.9c-0.4,0.5-1.2,0.9-1,1.7c0.1,0.6,0.9,1.2,1.2,1.7c0.5,0.6,0.9,1.4,1.6,1.8c1.6,1.3,2.6-0.5,2.7-2
		c0.5,0.2,0.8-0.1,1.1-0.4c0.1-0.1,0.2-0.2,0.2-0.4c0.2,0,0.4-0.1,0.5-0.2s0.2-0.3,0.3-0.4c1.2,0.8,2.2-0.2,2.6-1.3
		c0.3,0,0.6-0.1,0.9-0.2c0.5,0.3,1.1,0.2,1.4-0.3l0,0c0.9,0.1,1.6-0.8,1.7-1.6c0.2-1.3-0.6-2.5-1.2-3.6c1.6-1-0.8-4.3-1.6-5.1
		c0.5-0.1,0.6-0.4,0.8-0.8c0.2-0.3,0.5-0.6,0.8-0.9c0.5-0.5,1.3-1.3,0.7-2c1-0.8,0-2-1-2.1c-0.4,0-0.7,0.1-1,0.2s-0.6,0.1-0.9,0.4
		c-0.9-0.3-1.6-0.7-2.4-1.2c1.3-1.1-0.7-2.8-1.4-3.5c1.8-0.4,0.1-2.2-0.4-2.7c-1.1-1.2-2.4-2.4-3.7-3.5c-1.1-1-2.2-1.9-3.3-2.8
		c-0.2-0.2-0.4-0.3-0.6-0.5c-0.7-0.5-2.1-0.5-2,0.7c-1-0.4-2.3-1.1-3.4-0.9c-0.4-1-1.1-1.5-2.2-1.4c0.4-1.1,0.5-2.7,1.2-3.6
		c1.1-0.4,2.4,0.2,3.5,0.1c1.6-0.1,3.2-1.1,4.7-0.1c1.1,0.8,2.5,0.6,3.8,0.3c0.6-0.1,1.3-0.4,1.4-1c0.3-1-0.9-1.5-1.6-1.7
		c0-0.3,0.1-0.6,0.3-0.9l0,0c0.7-0.1,2,0.2,2.6,0.7c0.5,0.4,0.6,1,1.4,0.9c0.4-0.1,0.8-0.4,0.8-0.9c0,0,0.1,0,0.1-0.1l0,0l0,0
		c0,0.8-0.1,1.6-0.3,2.4c-0.6,0.5-1.5,0.6-1.5,1.5c0,0.7,0.4,1.4,0.7,2c0.9,1.7,2.3,3.1,3.7,4.4c1.4,1.2,2.9,2.4,4.4,3.5
		c0.5,0.4,1.1,0.9,1.8,0.5c0.9-0.6,0.6-2.1,0.6-3c0.9-0.3,0.7-1.3,0.2-1.9c1.4-0.6,0.4-1.9-0.2-2.5c1.4-1.9-3.6-3.6-4.3-4.8
		c0.2,0,0.3-0.1,0.5-0.2c0.8,0.7,1.6-0.3,2.3-0.6c0.8,0.2,2,0.9,2.9,0.4c0.4-0.2,0.4-0.6,0.5-1s0-0.5,0.4-0.9c0.5-0.5,0.9-0.9,1.6-1
		c0.9-0.1,3.5,0.5,3.1-1.3c-0.1-0.7-1-1.1-1.5-1.4c-0.8-0.5-1.6-0.9-2.3-1.5V300l0,0c1.3,0.3,3.2,0.6,5.9,1.1c0.5,1.7,4.1,0,2.1-1.7
		c1.3-2.3-5.6-3.4-6.8-3.7c-2.1-0.5-4.3-1-6.4-1.5c-2.3-0.6-4.7-1.3-7.2-1.4c-1.1-0.1-2.2-0.1-3.4-0.1c-0.6,0-1.2-0.1-1.8-0.2
		c-0.5-0.1-1.2-0.4-1.7-0.3c-0.4,0.1-0.6,0.2-1.1,0.2c-0.6,0-1.1,0.1-1.7,0.3c-0.6,0.1-1.2,0.2-1.9,0.3c-1,0.1-2,0.1-2.9,0
		c-1.1-0.1-2-0.7-3-1.1c-2-0.9-4.1-0.7-6.3-0.7c-1.1,0-2.1-0.1-3.1-0.5c-0.9-0.3-1.8-0.7-2.8-0.8c-0.9-0.1-1.7,0-2.6-0.1
		c-1.2-0.1-2.4-0.5-3.6-0.7c-0.2-0.7-0.9-0.7-1.4-0.9c-0.8-0.2-1.6-0.4-2.4-0.6c-0.7-0.1-1.8-0.5-2.4,0.1c-0.3,0.4-0.3,1,0,1.4
		c0.1,0.2,0.3,0.3,0.5,0.4c0.2,0.2,0.2,0.4,0.4,0.6c-1.1-0.1-4.3-0.7-4.5,0.9c-2.1-0.9-3.6-2.6-6-2.9c-1.1-0.1-4.3-0.8-4.7,0.6
		c-0.5,0-1,0-1.4-0.1c-0.5-0.1-0.6-0.3-1-0.5c-0.7-0.3-1.5-0.3-2.2-0.3c-0.7,0.1-1.5,0.2-2.2,0.2c-0.7,0-1.3-0.3-2-0.6
		c0.4-1.6-1.9-2.5-3.1-2.7c-1.5-0.3-3.1-0.4-4.6-0.4l0,0c-0.5-0.6-1.9-0.7-2.7-0.8c-0.9-0.1-2.4-0.3-3.2,0l0,0c0,0-0.1,0.1-0.2,0.1
		l0,0H197l0,0c-0.4,0.2-0.8,0.6-0.9,1.1c-2.6,0.3-5.1,0.4-7.7,1c-1,0.2-3.3,0.5-3.8,1.7c0,0.1-0.1,0.2-0.1,0.3
		c-0.9,0.1-3.7-0.1-3.3,1.4c-0.6,0-1,0.1-1.3,0.4c-0.8-0.8-2.3-1.9-3.3-0.6c-1.1-0.4-3.5-1.9-4.1,0c-0.2,0.6-0.2,1.3-0.4,1.9
		c-0.2,0.3-0.4,0.5-0.5,0.9s0.1,0.9,0.2,1.3c-1.4-0.4-2.8-0.6-4.2-0.9c-0.8-0.2-2-0.7-2.8-0.4c-0.5-0.9-1.6-0.8-2.2-1.4
		c0-1.1,2.4-1.8,3.1-2.1c1.5-0.6,3.1-1,4.6-1.7c1.8-0.7,0.7-2.3-0.8-2.5c-1.2-0.2-2.6,0.2-3.8,0.4c-1.7,0.3-3.8,0.4-5.2,1.4
		c-0.6,0.4-1,1-1.5,1.5c-0.3,0.3-0.6,0.3-0.9,0.5c-0.4,0.2-0.3,0.4-0.5,0.8c-0.1,0.3-0.4,0.5-0.4,0.9c0,0.2,0,0.3,0.1,0.5
		c-0.1,0.1-0.3,0.3-0.3,0.4c-0.3,0.7,0.4,1.4,0.9,1.8s1,0.4,1.6,0.5c0.7,0.2,1.4,0.5,2.1,0.7c-1.8,0.3-4.2,0.5-5.6,1.9
		c-0.5-1.2-2.6-1.4-3.7-1.4c-0.5,0-1.2,0-1.5,0.6c-0.4,0.8,0.4,1.3,0.7,2c-0.2,0-0.4,0-0.5,0c-0.4-1.8-2.8-2.7-4.4-3.1
		c-2-0.6-4.1-0.7-6.2-0.9c-0.3-1.3-2.8-1.5-3.8-1.5c-0.3,0-0.7,0-1,0c-0.3,0-0.5-0.2-0.9-0.3c-0.5-0.1-0.8,0-1.3,0.2
		c-2.3,0.9-5.2,0.7-7.3,2.3c-0.1-0.1-0.5-0.3-0.7-0.2l0,0c-0.9,0.1-2.3,1-3,1.5s-1.6,2,0,2.2c-0.6,0.6-1.3,1.3-1.9,1.9
		c-0.6,0.6-1.4,0.9-2.1,1.2c-1.3,0.7-2.6,1.4-3.9,2.3c-0.9,0.5-1.2,1.4-1,2.4c0.1,0.8,0.6,1.4,0.5,2.2c-0.1,1,0,1.7,0.9,2.3
		c0.8,0.6,1.8,0.4,2.7,0.3c-0.9,1.2-1.3,3-0.7,4.4c-0.8,0.1-1.8,0.1-2.5,0.5c-1,0.5-1.9,1.5-2.7,2.3c0-0.5-0.2-1-0.6-1.3
		c-0.2-0.2-0.4-0.2-0.6-0.4c-0.2-0.2-0.1-0.1-0.3-0.3c-0.6-0.9-1.1-1.6-1.9-2.3c-0.2-0.2-0.7-0.6-0.8-0.9c-0.1-0.4,0.2-0.5,0.4-0.9
		c0.6-0.8,0.2-1.8-0.8-2c0,0,0.3-0.6,0.4-0.6l0,0l0,0l0,0c0.8-1.3-0.9-2-1.9-1.6c-0.6,0.2-1,0.7-1.6,1s-1.2,0.6-1.8,0.9
		c-0.5,0.3-1,0.5-1.1,1.2c0,0.2,0,0.4,0,0.6c-0.2,0.1-0.3,0.2-0.4,0.4c-0.1,0.2-0.2,0.4-0.2,0.6s0.1,0.4,0.2,0.6
		c-0.2,0-0.4,0-0.6,0.1l0,0l0,0c-0.1,0-0.1,0.1-0.2,0.1c-0.8,0.3-1.1,0.9-1.3,1.3c-1.1-0.2-2.2,0.4-2.1,1.7c0,0.4,0.2,0.6,0.3,0.9
		c0.2,0.4,0.2,0.2,0.1,0.5c-0.1,0.5-0.7,0.9-0.8,1.5c-0.2,1.6,2.2,1,3,0.9s1.9-0.2,2.6-0.7c0.1,0.3,0.2,0.5,0.3,0.6
		c-0.4,0.4-1.1,0.7-1.2,1.3c-0.1,0.5,0.2,1,0.7,1.1s1.1-0.1,1.6-0.1c0.6-0.1,1.3-0.2,1.9-0.3c0,0.2,0,0.3,0,0.4
		c-1.2-0.1-3.3-0.4-3.5,1.3c-0.1,1.2,1.9,2.8,3.1,2.6c0.5,0.4,0.6,1,0.7,1.6c0,0.4,0.1,1.6-0.3,1.9c-0.4,0.5-1.6,0.2-2.1,0.1
		c-1.8-0.2-5.3-1.3-6.5,0.7c-0.6,1.1-0.7,2.8-0.8,4.1c-0.1,1.2-0.4,2.5-0.2,3.6c0.1,0.8-0.3,1.9,0.5,2.4c0.4,0.3,1,0.4,1.5,0.4
		c0.4,0.1,1.3,0,1.6,0.3c-0.6,0.7-0.8,1.6-1.3,2.4c-0.5,0.6-1.2,1-1.8,1.5c-1.3,1-1.8,2.3-2.2,3.9c-0.2,0.6-0.3,1.2-0.7,1.8
		c-0.5,0.6-1.2,1.1-1.8,1.5c-1.3,1-2.4,2.2-3.3,3.6c-0.9,1.4-1.8,2.8-2.7,4.1c-0.9,1.4-1.6,3-0.6,4.5c0.7,1.1,0.5,3.1,0.2,4.2
		c-0.4,1.3-1.7,2.4-1.8,3.8c-0.1,0.7,0.5,1.5,0.8,2.2c0.2,0.6,0.4,1.3,0.5,2c0.2,1.1,0.7,3.3,2.3,2.1c0.9,1.4,1.4,3.1,2.4,4.4
		c1.2,1.5,2.8,2.7,4.3,3.9c1.1,0.9,2.1,1.5,3.5,1.4c0.9-0.1,1.7-0.2,2.5-0.3c0.9,0,1.9,0,2.8,0c2.1,0,3.7-0.7,5.6-1.6
		c1-0.5,2.7-1.4,3.8-0.8c0.6,0.4,0.8,1.2,1.2,1.8c0.5,0.7,1.2,1.2,2,1.4c0.9,0.2,2.3-0.6,2.9,0.2c1,1.2-0.1,3.6-0.4,4.9
		c-0.1,0.6-0.4,1.3-0.3,2c0.1,0.9,0.6,1.8,1.2,2.5c0.6,0.8,1.3,1.6,2,2.4c0.7,0.9,1,1.9,1.4,3c0.2,0.8,0.8,1.7,1,2.5
		c0.1,0.4-0.1,0.5-0.2,0.9c-0.1,0.5,0.1,1,0.2,1.5c0.2,0.7,0.5,1.4,0.4,2.1c0,0.7-0.4,1.4-0.7,2c-0.8,1.6-1.5,3.3-1.7,5.1
		c-0.3,3.3,1.8,5.8,2.8,8.8c0.5,1.5,0.6,3.1,0.9,4.7c0.3,2.2,1,4,2.3,5.9c0.6,0.9,1.2,1.8,1.6,2.8c0.3,0.9,0.1,1.3,0,2.2
		c-0.1,0.7,0.4,1.5,0.6,2.2c0.2,0.5,0.3,1,0.8,1.3c1.3,0.8,3.5,0.1,4.9,0c2-0.2,4.1-0.2,6-1.1c1.6-0.8,2.9-1.9,4.1-3.3
		c0.6-0.6,1.1-1.3,1.6-2c0.6-0.8,1.3-1.4,1.9-2.2c0.5-0.7,0.7-1.5,0.8-2.4s-0.2-1.8,0.6-2.4c1.3-1,2.9-1.2,3.3-3.1
		c0.2-0.8,0.2-1.8,0-2.6c-0.1-0.7-0.6-1.2-0.6-1.9c-0.1-1.5,2-2.7,3-3.4c1.6-1.1,3.3-2.1,4.1-3.9c0.7-1.5,0.8-3.2,0.7-4.8
		c-0.1-1.7-0.6-3.1-1.1-4.7c-0.1-0.3-0.5-1.1-0.4-1.4s0.5-0.4,0.5-0.8c0-0.2,0-0.5-0.2-0.7c-0.1-0.1-0.3-0.2-0.4-0.3
		c-0.2-0.2-0.2-0.6-0.3-0.9c-0.3-0.8-0.4-1.4-0.1-2.2c0.3-0.8,0.7-1.6,1.1-2.3c1.1-1.8,2.6-3.4,4.2-4.9c1.3-1.3,2.7-2.4,4-3.7
		c1.3-1.3,2.3-2.9,3.1-4.6c0.7-1.5,1.5-3.1,2.2-4.6c0.3-0.8,0.6-1.6,0.7-2.4c0-0.7,0.3-1.7,0.1-2.3c-0.3-1-1.6-0.8-2.4-0.6
		c-1.4,0.2-2.8,0.6-4.2,0.9c-0.7,0.2-1.5,0.5-2.2,0.6c-0.7,0.1-1-0.1-1.4-0.6c0.1-0.1,0.1-0.2,0.1-0.4c2,0,3.8-1.3,5.5-2.1
		c1.8-0.8,3.5-1.5,4.9-2.9c0.6-0.6,1.3-0.8,2.1-1c0.9-0.3,1.5-0.7,2.2-1.3c0.7-0.6,1.5-1.1,2.2-1.6c0.7-0.6,0.9-1.1,1-2
		c1.1-0.1,1.4-1.5,1.6-2.3s0.6-1.8,0.3-2.6c-0.3-0.7-1.1-1.5-1.8-1.8c-0.9-0.5-1.8-0.5-2-1.7l0,0l0,0c2.2,1.4,5.1,1.1,7.6,0.9
		c0.9,0,1.9-0.2,2.8,0.1c1.3,0.5,2.3,1.8,3.4,2.7c-0.5,1.1,1.2,2.5,2,3.1c1,0.8,2,1.2,3.1,0.2c1,3.9,2.1,7.8,3.8,11.5
		c0.5,1.1,1,2.1,1.4,3.3c0.4,1.1,0.7,2.3,1.4,3.2c1.3,1.6,2.3,0.8,3.6-0.2c0.1,1.2,0.1,3.1,1,4s2.4,0.3,3.2-0.4
		c1.9-1.7-0.2-5.7-2-6.7c0.7-2.2-0.3-4.6,0-6.9c1.1-0.3,2-1.5,2.8-2.3c0.9-1,1.8-2,2.7-3c0.4-0.5,0.8-1,1.2-1.6
		c0.4-0.6,0.7-1.3,1.3-1.8c1.3,0,2.9,0.2,4.1-0.5c0.7,1.1,1.1,2.3,2.3,2.9c0,0.5-0.1,1,0.2,1.4c0.3,0.4,0.8,0.5,1.1,0.8
		c0.5,0.6,0.2,1.6,0.1,2.3c-0.2,2.2,2.7,1.8,4,1.1c0.5,1.2,1.1,2.3,1.5,3.6c0.1,0.3,0.2,0.6,0.2,0.9c0,0.6-0.4,1,0,1.7
		c-0.5,0.7,0,1.8,0.1,2.5c0.2,0.8,0.1,1.8,0.5,2.5c0.3,0.5,0.9,0.9,1.3,1.5c0.6,0.8,0.3,1.8,1.4,2.2c0.2,0.8,0.2,1.6,0.5,2.4
		c-1.3-1.3-3.7-4.2-5.8-3.9c-0.9,0.1-1.5,0.9-1.5,1.7c0.1,1.5,1.6,2.8,2.5,3.8c2,2.1,3.4,4.4,4.8,7c0.7,1.3,1.5,2.5,2.4,3.7
		C240.2,400.3,241.1,401.7,242.5,402.1C242.5,402.2,242.4,402.1,242.5,402.1z M130,312c-0.2-0.1-0.4-0.2-0.7-0.2
		C129.6,311.8,129.8,311.9,130,312z M158.9,368.3c0.3,0,0.5,0.1,0.8,0.3C159.4,368.4,159.1,368.3,158.9,368.3z"/>
	<path d="M275.4,391.9c-0.1-0.3-0.3-0.6-0.3-1s0.3-0.8,0.1-1.2c-0.2-0.4-0.6-0.4-0.9-0.6c-0.2-0.2-0.2-0.5-0.6-0.6
		c-1.5-0.6-2,1.6-2.2,2.5c0,0.4,0,0.8-0.1,1.1c-0.1,0.4-0.4,0.7-0.4,1.1c0,0.7,0.4,1.4,1,1.6c0.3,0.1,0.5,0.1,0.8,0.1s0.7,0.1,1,0
		c0.8-0.2,0.9-1,0.8-1.6C275.2,393.2,275.7,392.6,275.4,391.9C275.4,391.8,275.5,392.2,275.4,391.9z"/>
	<path d="M184.9,280.4c-0.7,0.8-0.1,1.9,0.7,2.4c0.6,0.3,1.3,0.3,2,0.3c2.1,0,4.5,1.3,6.6,0.4c2.2-1-1-3-2.1-3.2
		c-1-0.2-1.9-0.3-2.8-0.7c-0.8-0.3-1.6-0.5-2.5-0.3l0,0C186.2,279.4,185.1,279.5,184.9,280.4C184.8,280.5,185,279.8,184.9,280.4z"/>
	<path d="M262.4,401.9c1.3,0,1.5-1,1.8-2.1c0.1,0.1,0.2,0.3,0.3,0.4c0.2,0.2,0.2,0.2,0.3,0.5c0.2,0.5,0.4,0.9,0.9,1.1
		c1,0.4,2-0.6,2.3-1.5c0.6-1.9-1.4-2.9-1.9-4.5c0.9-0.7,3.1-1.3,2-2.9c1.7-0.2,3.4-1.2,2.5-3.1c-0.5-1.2-1.6-1-2.4-0.2l0,0l0,0l0,0
		c-0.8,0.8-1.7,0.2-2.6-0.1c-1.8-0.5-3,0.7-3.8,2.2l-0.3-0.5c0,0-0.3-0.4,0,0l0.8-0.5c-0.3-0.5-0.6-1.1-0.9-1.7
		c-0.1-0.1-0.5-1.4-0.4-1.4c0.6-0.5,0.9-0.9,1.2-1.6c0.2-0.6,0.9-1.1,0.5-1.8c-0.3-0.5-1-0.9-1.5-1.3c-0.3-0.2-0.6-0.5-0.9-0.8
		c-0.1-0.1-0.3-0.2-0.3-0.3c-0.2-0.3-0.1-0.5-0.3-0.7c0.6-0.6,1.2-1.2,1.8-1.8c0.5-0.5,1.2-1,1.6-1.5c0.6-0.8,0.1-1.9-0.5-2.7
		c-0.4-0.5-0.9-0.6-1.5-0.3c-0.8,0.4-0.7,1.4-1.2,2.1c-0.8,1.1-2.7,2.3-1.8,4c-0.9,0.7-1.3,1.9-1.9,2.8c-0.5,1-1.6,1.6-2.4,2.4
		c-0.5,0.4-1.1,1.1-1.7,1.3c-0.4,0.1-0.7-0.1-1.1,0.2c-0.4,0.3-0.4,0.9-0.5,1.4c-0.6-0.8-1.6-0.5-2.2,0.1c-0.7,0.7-1,1.8-0.9,2.8
		s0.5,1.8,0.9,2.7c0.4,0.8,0.5,2,1.1,2.6s1.6,0.8,2.3,1.2c0.8,0.4,0.9,0.1,1.7,0c0.7-0.1,1,0.4,1.5,0.8c0.7,0.7,1.2,0.5,2.1,0
		c1.3,1.3,2-1.2,2.1-2.1c0.1-1.1,0.5-1.6,1-2.5c0.3-0.6,0.5-1.8,1.1-2.1c-0.5,1.1-0.8,2.3-1,3.5c-0.1,1-0.2,1.6,0.3,2.4
		c0.2,0.3,0.4,0.7,0.4,1c0,0.4-0.3,0.8-0.2,1.2C261,401.5,261.7,401.9,262.4,401.9z"/>
	<path d="M264.5,378.1c-0.2,0.8,0.3,1.2,0.8,1.7c-0.5,0.3-0.8,0.4-1,1.1c-0.2,0.6-0.4,1.5,0,2.1c0.2,0.3,0.5,0.5,0.9,0.6
		c0.3,0,0.5-0.1,0.7-0.2c0.1-0.1,0.2-0.2,0.3-0.3c0.2,0,0.3,0,0.5,0c0.1,0.7,0.5,1.1,1,1.4c0.2,0.1,0.5,0.2,0.7,0.4
		c0.2,0.2,0.2,0.5,0.4,0.7c1,1,2.1-0.1,2.1-1.2c0.9-0.3,0.7-1.7,0.8-2.4c0.1-1.1,0.1-2.3-0.2-3.4c-0.1-0.5-0.4-0.9-0.6-1.4
		s-0.2-1.1-0.5-1.6c-0.4-1-0.8-2.1-2.1-2.3c0.4-0.6,0.1-1.5-0.5-1.9c-0.6-0.3-1.5-0.3-2.1-0.4c0-0.7-0.5-1.1-1.2-1.3
		c0.4-1.2,1-2.1,0.4-3.4c-0.3-0.7-0.9-1.3-1.4-1.7c-0.8-0.5-1.9-0.7-2.6,0.1c-0.6,0.6-0.5,1.6-0.4,2.4c0,1.2-0.5,2-0.1,3.2
		c0.1,0.3,0.2,0.7,0.4,1c0.1,0.3,0.2,0.4,0.2,0.6c0.1,0.4,0.1,0.7,0.4,1.2c0.3,0.6,0.6,1.2,1,1.7c0.2,0.2,0.3,0.4,0.6,0.6
		c0.1,0.1,0.5,0.1,0.6,0.2c0.2,0.2,0.1,1,0.2,1.3C263.8,377.3,264,377.9,264.5,378.1C264.4,378.4,263.7,377.7,264.5,378.1z"/>
	<path d="M103.8,301.6c-0.1,0-0.3,0-0.4,0.1c-0.7-0.3-1.3,0.1-1.5,0.8c-0.2,0.7,0.3,1.8,0.8,2.3c0.4,0.3,0.8,0.4,1.2,0.2
		c0.6-0.3,0.4-0.7,0.5-1.2c0.1-0.4,0.4-0.6,0.4-1.1C104.7,302,104.3,301.6,103.8,301.6z"/>
	<path d="M147.6,281.5c0.2,0.2,0.5,0.4,0.8,0.3c0.9,0.1,1.5,0.5,2.4,0.5s1.8,0.1,2.7,0.1c0.8,0.2,1.6-0.3,2.4-0.3
		c0.5,0,1.1,0.2,1.6,0.1c1.5,0,4.8,1.1,5.4-1.1c0.2-0.8-0.3-1.3-1-1.6c-0.5-0.2-1-0.2-1.5-0.3c-0.4,0-0.4-0.1-0.7-0.3
		c-0.2-0.1-0.4-0.3-0.7-0.3c-0.8-0.2-1.4,0.2-2.1,0.4c-0.9,0.3-1.9,0.4-2.8,0.8c-0.5-0.4-1.2-0.5-1.8-0.5c-0.4,0-0.8,0.2-1.2,0.2
		c-0.6,0.1-1.1,0-1.7,0C148.6,279.7,146.4,280.2,147.6,281.5z"/>
	<path d="M87.6,296.6c-0.6,0.5-1.7,0.8-2,1.6c-0.1,0.4,0,1,0.1,1.3c0.1,0.5,0.4,0.9,0.9,1c0.1,2.2,5,1.4,6.3,1.2
		c1.5-0.2,4.3-0.6,4.9-2.2c0.4-0.9,0-1.9-0.6-2.6c-0.4-0.6-0.8-0.7-1.6-0.6c-0.9,0.1-1.7,0.2-2.6,0.4c-0.3,0.1-0.7,0.2-1,0.2
		c-0.4,0-0.4-0.1-0.8-0.3c-0.4-0.2-0.9-0.1-1.2,0.3C89.6,296.1,88.3,295.7,87.6,296.6C87.5,296.6,87.6,296.5,87.6,296.6z"/>
	<path d="M121.1,280.5c-0.8,0.1-1.4,0.8-1.2,1.7l0,0c-0.3,0.8,0.2,1.4,0.9,1.7c0.7,0.4,1.5,0.8,2.2,1.2c1,0.5,2.3,1.3,3.4,1
		c1.1-0.3,0.9-1.7,2.1-1.8c0.3,2.1,6.2,1.1,5-0.9c-0.1-0.2-0.2-0.3-0.6-0.6c0.6-0.1,1.5-0.2,1.9-0.8c0.4-0.6,0.1-1.3-0.5-1.6
		c-1-0.5-2.6-0.4-3.8-0.5c-1.2,0-2.4-0.1-3.5,0.1c-0.6,0.1-1,0.3-1.5,0.3s-1.1,0.1-1.4,0.6C123.2,280.7,122.1,280.4,121.1,280.5z"/>
</g>
</svg>
